{"glyphs":{":":{"x_min":0,"x_max":188,"ha":188,"o":"m 108 345 b 123 349 139 362 138 379 b 138 399 135 418 127 437 b 124 445 114 446 107 447 b 100 447 93 445 88 440 b 82 436 76 430 75 423 b 73 416 74 408 74 401 b 74 387 75 374 74 361 b 73 344 97 342 108 345 z m 91 141 b 77 137 66 128 61 114 b 53 89 51 63 50 37 b 49 15 81 11 96 15 b 116 21 138 38 137 60 b 135 85 133 108 124 131 b 119 143 102 144 91 141 z"},"$":{"x_min":0,"x_max":492,"ha":492,"o":"m 321 325 b 309 338 295 352 281 367 b 287 468 295 569 306 670 b 355 652 371 589 380 540 b 385 515 430 530 427 552 b 419 596 409 643 379 678 b 361 698 337 710 311 716 b 317 771 324 827 331 882 b 335 908 292 900 289 879 b 281 826 275 773 268 720 b 263 720 258 719 254 719 b 155 706 61 625 51 524 b 38 399 133 312 216 233 b 220 229 225 225 229 221 b 225 132 224 43 224 -45 b 211 -41 200 -35 190 -27 b 142 14 129 87 157 143 b 168 166 131 164 122 149 b 69 61 111 -50 203 -89 b 210 -92 217 -94 224 -96 b 224 -129 225 -161 225 -193 b 226 -218 273 -203 272 -181 b 271 -154 271 -128 270 -101 b 344 -97 409 -38 432 34 b 468 146 393 248 321 325 z m 240 414 b 198 467 165 527 179 591 b 189 636 219 671 263 675 b 254 588 246 501 240 414 z m 322 -12 b 312 -34 292 -46 270 -50 b 269 25 270 99 272 173 b 317 119 351 53 322 -12 z"},"?":{"x_min":0,"x_max":536,"ha":536,"o":"m 471 703 b 452 745 413 775 371 791 b 284 825 184 791 121 726 b 58 660 19 548 83 470 b 96 453 136 479 120 498 b 68 562 106 658 157 710 b 187 741 227 762 271 765 b 314 769 368 758 387 715 b 405 678 399 632 389 594 b 377 548 361 504 344 460 b 313 375 280 289 253 203 b 238 154 225 106 215 56 b 205 6 192 -51 199 -102 b 208 -172 321 -132 331 -81 b 342 -28 343 26 353 79 b 363 133 377 187 392 240 b 423 344 456 448 478 554 b 488 603 493 657 471 703 z m 234 -210 b 224 -233 225 -260 221 -285 b 217 -308 236 -323 259 -321 b 279 -319 312 -304 315 -279 b 318 -256 324 -218 310 -197 b 293 -171 246 -184 234 -210 z"},"<":{"x_min":0,"x_max":481,"ha":481,"o":"m 397 239 b 353 250 307 253 262 257 b 244 259 226 261 208 264 b 237 279 266 293 295 306 b 333 322 375 336 406 364 b 416 374 417 395 402 401 b 350 421 279 391 231 372 b 203 361 176 349 150 335 b 121 319 90 304 69 278 b 51 257 41 222 61 199 b 81 174 120 170 150 165 b 214 155 280 153 344 142 b 375 137 411 154 425 182 b 440 209 425 233 397 239 z"},"'":{"x_min":0,"x_max":165,"ha":165,"o":"m 102 766 b 100 790 56 775 57 753 b 58 696 52 638 50 581 b 49 547 116 566 115 598 b 114 654 107 709 102 766 z"},"=":{"x_min":0,"x_max":564,"ha":564,"o":"m 75 275 b 99 265 127 267 153 267 b 178 268 204 269 229 269 b 285 270 340 269 395 269 b 418 269 446 287 454 309 b 461 328 451 351 428 352 b 370 356 312 356 255 352 b 201 347 133 348 85 320 b 71 312 50 286 75 275 z m 470 240 b 343 231 208 237 85 200 b 71 196 54 185 50 168 b 48 155 57 142 71 140 b 133 135 196 142 258 145 b 321 149 385 154 449 152 b 475 151 507 173 513 199 b 519 226 494 242 470 240 z"},"a":{"x_min":0,"x_max":404,"ha":404,"o":"m 387 58 b 385 92 385 126 384 159 b 384 226 388 293 388 360 b 388 391 347 395 326 390 b 313 386 302 380 293 372 b 287 376 282 379 275 382 b 237 398 192 392 155 375 b 78 339 30 258 13 178 b -3 109 -4 13 64 -30 b 92 -47 129 -46 159 -30 b 191 -13 206 22 219 54 b 237 97 251 142 265 187 b 265 166 266 144 267 123 b 269 90 273 57 280 24 b 286 -8 294 -42 326 -57 b 343 -66 365 -53 375 -39 b 393 -9 389 25 387 58 z m 216 164 b 207 136 197 108 187 81 b 178 61 164 10 139 1 b 114 23 111 59 111 92 b 111 133 118 176 133 215 b 145 245 165 290 193 309 b 215 324 240 310 259 293 b 243 251 230 207 216 164 z"},"L":{"x_min":0,"x_max":212,"ha":212,"o":"m 82 -461 b 87 -484 92 -507 99 -529 b 122 -614 151 -697 203 -767 b 219 -788 268 -762 263 -738 b 247 -662 223 -587 207 -510 b 201 -476 194 -442 189 -408 b 259 -375 330 -346 403 -319 b 509 -281 619 -247 732 -233 b 795 -224 859 -221 923 -228 b 987 -234 1047 -252 1108 -272 b 1129 -279 1152 -273 1166 -256 b 1179 -242 1180 -222 1162 -212 b 1057 -154 924 -145 807 -154 b 683 -164 561 -195 444 -236 b 354 -267 265 -303 179 -344 b 176 -325 174 -306 172 -287 b 154 -125 145 37 143 200 b 138 527 157 854 185 1180 b 202 1367 219 1554 231 1742 b 232 1769 195 1776 177 1772 b 153 1768 120 1750 116 1723 b 68 1390 38 1053 22 717 b 7 387 7 52 51 -277 b 56 -317 62 -358 69 -398 b -30 -451 -127 -509 -218 -575 b -273 -613 -327 -653 -376 -698 b -424 -742 -472 -793 -497 -854 b -508 -880 -471 -882 -458 -866 b -423 -821 -388 -778 -344 -740 b -302 -704 -258 -671 -212 -639 b -118 -574 -20 -514 82 -461 z"},"3":{"x_min":0,"x_max":565,"ha":565,"o":"m 96 133 b 83 133 72 123 67 111 b 53 75 43 38 57 0 b 68 -30 90 -55 118 -71 b 184 -108 269 -98 335 -67 b 411 -33 465 32 494 109 b 522 181 527 274 476 337 b 452 367 416 390 377 403 b 448 482 488 591 416 678 b 371 732 308 753 239 741 b 173 730 108 690 74 632 b 42 578 34 477 111 457 b 130 453 154 483 128 490 b 94 499 91 548 95 576 b 101 612 122 643 150 666 b 198 705 275 725 332 691 b 386 657 377 573 353 524 b 330 475 289 428 240 403 b 234 401 228 398 223 396 b 200 384 172 356 186 328 b 200 301 239 306 261 316 b 281 325 314 308 332 299 b 359 286 382 264 391 234 b 407 177 387 101 356 52 b 324 2 271 -30 211 -26 b 181 -24 150 -12 127 8 b 95 37 104 77 116 114 b 120 127 106 133 96 133 z"},";":{"x_min":0,"x_max":232,"ha":232,"o":"m 104 359 b 112 355 124 355 132 358 b 150 363 171 378 170 399 b 169 414 169 437 156 447 b 141 459 116 452 105 439 b 91 421 91 399 90 378 b 89 370 97 362 104 359 z m 87 127 b 76 86 66 46 59 4 b 55 -24 38 -81 65 -101 b 75 -109 89 -106 99 -99 b 132 -75 139 -27 150 10 b 161 50 171 91 181 133 b 194 188 99 169 87 127 z"},"J":{"x_min":0,"x_max":1638,"ha":1638,"o":"m 1379 -647 b 1430 -541 1470 -430 1501 -317 b 1565 -88 1604 151 1623 388 b 1641 623 1638 860 1582 1091 b 1535 1283 1459 1536 1242 1592 b 1135 1619 1018 1589 919 1545 b 817 1499 722 1430 640 1354 b 476 1201 343 1013 234 817 b 123 618 33 401 -14 177 b -25 129 -27 79 9 41 b 32 17 101 54 80 84 b 52 124 76 178 89 220 b 105 270 121 320 139 370 b 176 469 217 567 264 662 b 356 848 469 1027 606 1184 b 728 1325 887 1474 1075 1516 b 1169 1536 1265 1516 1335 1448 b 1403 1381 1441 1289 1472 1200 b 1618 783 1582 320 1501 -106 b 1459 -320 1398 -536 1288 -726 b 1239 -812 1161 -903 1053 -896 b 949 -890 901 -787 884 -697 b 840 -481 916 -251 1000 -54 b 1082 140 1189 324 1313 493 b 1344 535 1376 576 1408 617 b 1424 638 1430 668 1402 681 b 1376 693 1336 680 1319 658 b 1177 478 1050 283 956 73 b 863 -136 778 -376 801 -608 b 811 -707 841 -817 918 -886 b 993 -952 1099 -948 1182 -899 b 1277 -844 1332 -743 1379 -647 z"},"V":{"x_min":0,"x_max":1323,"ha":1323,"o":"m 1241 1234 b 1192 1297 1111 1318 1035 1304 b 882 1276 761 1134 705 997 b 649 859 641 698 697 559 b 726 488 773 422 836 378 b 907 328 990 310 1075 311 b 1107 312 1139 316 1170 321 b 1138 209 1098 99 1047 -5 b 985 -132 900 -284 764 -343 b 634 -400 518 -274 457 -174 b 362 -16 312 162 261 338 b 232 437 203 536 173 634 b 143 732 108 828 75 925 b 61 963 -19 929 -12 893 b 9 793 29 694 53 595 b 78 497 103 398 128 300 b 174 123 217 -64 315 -221 b 360 -291 414 -359 487 -401 b 559 -443 648 -454 728 -431 b 892 -383 1003 -231 1080 -87 b 1168 75 1226 253 1265 432 b 1286 526 1302 622 1311 719 b 1321 811 1327 906 1317 998 b 1309 1079 1292 1169 1241 1234 z m 1210 469 b 1203 438 1194 407 1186 376 b 1109 362 1026 360 952 387 b 885 412 830 461 791 520 b 713 637 691 780 724 916 b 757 1050 845 1187 973 1247 b 1046 1281 1137 1278 1193 1214 b 1243 1156 1260 1069 1267 995 b 1282 820 1252 639 1210 469 z"},"\"":{"x_min":0,"x_max":247,"ha":247,"o":"m 99 775 b 86 772 72 764 66 752 b 51 725 51 687 50 658 b 49 636 79 633 94 637 b 114 642 132 658 133 680 b 133 694 133 708 134 721 b 134 736 136 749 130 763 b 126 774 109 776 99 775 z m 194 753 b 195 776 150 764 147 745 b 143 714 137 684 140 652 b 143 621 197 641 197 667 b 196 696 192 724 194 753 z"},"7":{"x_min":0,"x_max":431,"ha":431,"o":"m 368 337 b 356 338 345 339 333 340 b 346 390 359 441 370 491 b 385 559 399 668 319 701 b 283 715 244 714 206 712 b 159 709 114 701 69 688 b 44 681 42 646 72 654 b 111 665 151 672 192 674 b 225 676 287 686 292 642 b 296 606 284 564 274 530 b 263 491 249 453 235 414 b 226 390 217 365 209 341 b 196 340 183 339 170 338 b 148 336 131 300 162 302 b 173 303 185 304 197 304 b 182 260 169 216 156 171 b 133 91 109 10 98 -73 b 93 -107 119 -126 151 -124 b 187 -123 221 -99 232 -65 b 262 29 281 126 304 222 b 310 249 317 275 324 302 b 332 301 340 301 348 300 b 369 297 397 334 368 337 z"},"S":{"x_min":0,"x_max":1161,"ha":1161,"o":"m 821 376 b 681 470 526 540 378 621 b 306 660 230 702 173 762 b 122 815 89 897 122 967 b 154 1034 221 1080 285 1111 b 361 1147 446 1164 530 1158 b 611 1152 695 1127 760 1077 b 826 1027 868 956 894 878 b 907 838 915 799 919 757 b 922 727 981 746 975 772 b 955 847 938 924 900 992 b 863 1059 808 1112 741 1148 b 604 1223 428 1224 283 1172 b 141 1121 -33 1000 -5 827 b 22 656 210 567 347 495 b 491 419 642 353 772 255 b 899 160 1017 31 1042 -131 b 1054 -211 1041 -292 999 -362 b 960 -427 900 -480 836 -519 b 699 -603 529 -628 379 -566 b 235 -507 127 -382 99 -228 b 72 -78 92 102 177 232 b 198 264 224 292 253 316 b 277 335 248 356 228 339 b 111 245 59 98 47 -47 b 33 -207 63 -368 177 -486 b 403 -718 786 -669 1009 -459 b 1068 -403 1116 -333 1137 -253 b 1161 -168 1154 -78 1128 6 b 1080 163 954 286 821 376 z"},"}":{"x_min":0,"x_max":623,"ha":623,"o":"m 562 330 b 473 419 419 534 370 649 b 345 709 324 772 294 830 b 269 878 239 940 179 945 b 160 946 134 916 161 912 b 194 907 214 876 220 845 b 227 813 231 781 238 749 b 252 686 268 624 287 562 b 312 478 350 396 402 325 b 382 312 364 295 351 275 b 331 244 321 207 315 171 b 307 129 300 86 293 43 b 280 -34 278 -121 246 -193 b 220 -251 165 -295 102 -258 b 81 -245 33 -279 56 -300 b 108 -349 185 -347 245 -314 b 314 -275 355 -205 376 -130 b 400 -50 410 34 424 116 b 431 153 434 194 447 230 b 450 239 455 249 460 254 b 461 255 459 257 462 254 b 488 237 522 242 547 260 b 567 276 585 308 562 330 z"},"Z":{"x_min":0,"x_max":1022,"ha":1022,"o":"m 1294 -124 b 1165 -132 1041 -156 917 -191 b 791 -226 667 -269 538 -295 b 459 -311 290 -355 273 -234 b 265 -178 281 -122 300 -69 b 322 -8 353 50 386 106 b 517 328 697 516 855 719 b 895 771 933 824 969 878 b 1003 930 1037 987 1038 1051 b 1040 1179 884 1232 780 1249 b 643 1270 496 1254 361 1224 b 227 1195 96 1142 -13 1058 b -39 1038 -9 1018 13 1033 b 116 1106 233 1152 356 1178 b 474 1203 603 1215 723 1200 b 831 1186 997 1121 934 984 b 908 927 866 879 828 830 b 789 780 749 731 708 683 b 541 487 363 296 238 69 b 205 9 177 -54 157 -120 b 140 -176 130 -237 146 -294 b 185 -429 335 -420 446 -401 b 587 -376 722 -324 857 -275 b 992 -226 1135 -175 1281 -176 b 1315 -176 1336 -122 1294 -124 z"},"x":{"x_min":0,"x_max":333,"ha":333,"o":"m 333 12 b 299 80 251 143 210 207 b 206 215 200 222 195 230 b 229 281 267 329 311 373 b 332 393 297 407 280 393 b 238 356 202 314 170 268 b 161 282 152 296 142 309 b 119 342 93 384 60 406 b 38 421 -3 406 -2 376 b 0 337 23 294 39 259 b 57 221 76 183 96 145 b 96 145 96 145 96 144 b 69 94 44 43 20 -7 b 8 -31 47 -30 56 -13 b 77 25 97 63 118 101 b 146 44 177 -14 223 -55 b 261 -88 360 -41 333 12 z"},")":{"x_min":0,"x_max":577,"ha":577,"o":"m 514 458 b 498 576 470 694 418 802 b 392 855 359 903 308 936 b 263 965 215 991 162 964 b 137 951 151 923 176 935 b 226 959 262 903 282 867 b 304 829 321 788 335 746 b 366 651 381 551 391 452 b 411 272 411 65 316 -96 b 269 -175 198 -221 105 -203 b 77 -198 25 -240 64 -261 b 159 -312 284 -267 359 -201 b 446 -125 493 -10 513 102 b 534 219 529 340 514 458 z"},"&":{"x_min":0,"x_max":752,"ha":752,"o":"m 690 -35 b 605 -29 519 -16 440 17 b 490 64 540 107 603 138 b 606 139 608 141 611 142 b 613 133 614 124 611 117 b 600 80 692 97 663 136 b 656 145 655 164 651 175 b 646 186 640 197 632 206 b 618 223 598 234 576 236 b 565 237 552 232 547 222 b 542 213 547 203 557 201 b 572 199 584 191 593 179 b 593 179 592 179 592 179 b 512 156 448 99 388 43 b 388 43 387 44 387 44 b 349 65 315 93 287 125 b 308 146 329 166 351 187 b 427 262 505 337 561 429 b 611 510 655 614 603 704 b 581 742 554 768 512 781 b 471 794 428 791 389 777 b 203 710 119 471 154 290 b 162 249 176 210 195 174 b 174 153 153 132 133 110 b 100 73 64 31 53 -20 b 44 -65 56 -112 95 -139 b 191 -207 305 -109 373 -46 b 385 -35 396 -24 407 -14 b 490 -49 581 -64 671 -70 b 682 -71 695 -66 700 -56 b 704 -47 701 -36 690 -35 z m 221 546 b 253 633 326 737 426 751 b 469 757 518 742 545 706 b 574 667 553 606 535 567 b 494 476 427 401 358 331 b 317 289 274 249 231 209 b 223 226 215 245 209 264 b 181 355 187 457 221 546 z m 255 -69 b 224 -89 161 -112 160 -52 b 159 -5 202 33 231 65 b 239 74 247 82 254 90 b 276 68 299 47 326 30 b 336 23 345 18 355 12 b 324 -17 291 -46 255 -69 z"},"_":{"x_min":0,"x_max":595,"ha":595,"o":"m 503 -81 b 430 -86 358 -94 285 -101 b 250 -105 216 -109 181 -114 b 163 -116 144 -119 126 -123 b 111 -125 95 -131 80 -132 b 65 -133 51 -144 50 -159 b 49 -190 96 -186 116 -186 b 157 -187 198 -186 239 -183 b 320 -178 401 -174 482 -166 b 508 -164 538 -147 544 -120 b 550 -94 526 -79 503 -81 z"},"v":{"x_min":0,"x_max":394,"ha":394,"o":"m 384 324 b 378 367 360 413 318 431 b 277 447 231 425 209 389 b 184 345 188 282 214 240 b 239 199 282 180 327 184 b 321 155 313 126 302 98 b 293 76 266 12 232 26 b 198 39 183 102 172 131 b 157 173 148 218 138 262 b 127 308 118 358 93 398 b 70 436 9 402 8 366 b 5 309 13 251 19 194 b 26 140 37 82 62 34 b 90 -19 133 -58 196 -53 b 246 -50 285 -15 313 24 b 343 64 359 112 370 160 b 383 213 393 270 384 324 z m 336 238 b 335 233 335 228 334 223 b 284 215 249 265 243 308 b 239 329 239 354 249 374 b 262 403 290 401 309 379 b 341 344 341 282 336 238 z"},"O":{"x_min":0,"x_max":1301,"ha":1301,"o":"m 973 -314 b 1034 -239 1080 -154 1121 -66 b 1163 25 1199 119 1227 216 b 1282 403 1308 600 1298 794 b 1289 982 1249 1175 1148 1335 b 1055 1484 911 1596 738 1635 b 575 1672 411 1618 287 1510 b 22 1279 -68 876 39 547 b 54 503 72 461 93 420 b 104 399 148 420 137 441 b -17 738 18 1127 225 1391 b 321 1512 457 1607 617 1609 b 778 1610 927 1516 1022 1390 b 1125 1253 1172 1079 1189 911 b 1208 731 1195 549 1155 373 b 1116 197 1051 27 965 -131 b 895 -259 782 -414 618 -406 b 456 -397 357 -233 319 -94 b 270 84 271 275 302 456 b 310 502 320 547 332 592 b 341 622 310 639 285 638 b 253 636 222 615 213 585 b 151 387 136 175 169 -30 b 198 -211 274 -405 453 -483 b 642 -566 851 -464 973 -314 z"},"(":{"x_min":0,"x_max":575,"ha":575,"o":"m 487 -204 b 305 -241 219 -7 193 130 b 157 320 179 528 228 714 b 241 763 257 811 281 856 b 302 897 339 960 394 934 b 412 925 445 954 422 966 b 379 988 335 970 297 946 b 251 917 214 880 186 833 b 125 730 91 608 73 491 b 38 271 25 4 174 -178 b 250 -270 393 -312 502 -259 b 538 -241 531 -195 487 -204 z"},"C":{"x_min":0,"x_max":1206,"ha":1206,"o":"m 1225 336 b 1231 359 1191 351 1185 333 b 1100 82 1004 -181 793 -355 b 700 -432 585 -488 462 -485 b 340 -481 259 -402 213 -295 b 161 -177 144 -41 135 87 b 126 227 135 369 161 507 b 184 635 219 764 271 883 b 318 989 384 1100 483 1166 b 603 1244 737 1170 798 1055 b 873 913 847 749 857 595 b 859 558 925 582 925 613 b 928 767 941 930 880 1074 b 829 1193 712 1291 577 1281 b 427 1269 308 1153 226 1036 b 143 918 93 780 57 641 b -20 345 -33 12 70 -279 b 115 -404 199 -512 334 -542 b 468 -571 606 -522 719 -452 b 999 -277 1135 31 1225 336 z"},"W":{"x_min":0,"x_max":2028,"ha":2028,"o":"m 2034 1014 b 2015 1166 1957 1413 1761 1412 b 1678 1412 1604 1357 1551 1296 b 1494 1231 1455 1153 1429 1071 b 1374 896 1381 702 1452 532 b 1519 370 1647 223 1827 191 b 1852 186 1878 184 1904 185 b 1884 106 1861 29 1834 -48 b 1804 -131 1770 -213 1728 -292 b 1690 -365 1641 -435 1573 -483 b 1542 -505 1504 -523 1465 -522 b 1425 -522 1388 -512 1353 -494 b 1283 -456 1235 -387 1199 -318 b 1119 -167 1079 -3 1055 166 b 1030 350 1014 535 985 718 b 978 765 970 812 960 859 b 951 903 879 875 879 837 b 879 742 883 647 890 552 b 867 410 842 267 810 127 b 788 33 765 -61 731 -150 b 701 -228 661 -320 594 -373 b 565 -397 536 -406 499 -398 b 460 -390 428 -364 402 -335 b 343 -272 307 -183 278 -103 b 212 78 184 274 158 464 b 143 576 129 687 117 799 b 106 902 99 1008 80 1110 b 83 1125 80 1138 68 1149 b 47 1170 7 1144 6 1119 b -1 1009 6 897 13 788 b 19 678 26 569 38 460 b 60 251 85 37 156 -162 b 187 -251 228 -348 298 -414 b 368 -481 474 -505 562 -462 b 642 -422 693 -349 733 -271 b 777 -184 805 -89 830 5 b 861 123 885 243 906 363 b 911 311 916 259 921 206 b 940 18 972 -179 1061 -349 b 1104 -429 1163 -501 1242 -548 b 1284 -573 1332 -589 1380 -593 b 1427 -597 1470 -587 1513 -570 b 1687 -504 1777 -317 1843 -156 b 1888 -44 1924 71 1953 188 b 1955 189 1958 189 1960 189 b 1979 193 2004 204 2005 226 b 2006 248 1984 253 1967 250 b 1980 306 1991 362 2000 419 b 2034 614 2059 816 2034 1014 z m 1962 477 b 1950 399 1936 321 1918 244 b 1769 238 1636 349 1561 471 b 1472 613 1432 789 1450 956 b 1459 1038 1483 1119 1524 1192 b 1562 1260 1618 1332 1692 1362 b 1777 1397 1860 1347 1905 1275 b 1951 1202 1971 1111 1983 1027 b 2010 844 1990 658 1962 477 z"},"A":{"x_min":0,"x_max":1483,"ha":1483,"o":"m 513 261 b 520 301 527 342 535 382 b 535 382 535 382 536 382 b 727 382 919 379 1110 374 b 1167 372 1224 370 1280 368 b 1282 351 1283 335 1284 318 b 1302 23 1310 -271 1315 -566 b 1315 -602 1362 -608 1388 -601 b 1421 -592 1452 -565 1453 -529 b 1455 -250 1438 31 1411 309 b 1409 327 1408 345 1406 363 b 1417 363 1428 362 1439 362 b 1463 361 1478 397 1448 398 b 1432 399 1417 399 1402 400 b 1376 629 1332 863 1220 1064 b 1170 1153 1094 1267 980 1272 b 871 1277 788 1171 732 1090 b 667 995 623 886 588 776 b 551 659 522 538 497 417 b 409 417 320 416 232 415 b 146 413 50 420 -18 358 b -36 341 -6 327 8 340 b 68 393 172 378 246 380 b 327 381 409 381 490 382 b 461 234 439 85 421 -65 b 401 -220 389 -376 405 -532 b 408 -556 452 -541 450 -520 b 436 -387 443 -254 458 -122 b 472 6 491 134 513 261 z m 592 633 b 622 746 656 860 707 966 b 732 1016 760 1064 793 1108 b 825 1150 862 1196 909 1221 b 1025 1280 1101 1125 1140 1042 b 1231 845 1261 621 1278 405 b 1033 414 787 418 542 418 b 557 490 573 562 592 633 z"},"f":{"x_min":0,"x_max":256,"ha":256,"o":"m 296 549 b 246 591 173 560 135 516 b 84 455 65 368 55 291 b 52 261 50 232 49 202 b 39 201 30 200 21 199 b -2 196 -19 159 12 162 b 24 164 36 165 48 167 b 48 121 50 75 53 29 b 60 -62 66 -154 87 -243 b 102 -308 211 -268 208 -210 b 201 -79 179 50 170 182 b 192 184 214 187 236 190 b 259 192 276 230 245 226 b 219 223 193 220 168 217 b 164 280 164 344 173 407 b 179 444 199 568 262 523 b 278 512 314 535 296 549 z"},"Q":{"x_min":0,"x_max":1350,"ha":1350,"o":"m 1122 -178 b 1047 -174 969 -184 895 -200 b 1023 -111 1127 19 1206 150 b 1309 320 1374 514 1395 712 b 1416 915 1396 1132 1305 1318 b 1222 1487 1068 1628 878 1659 b 691 1689 495 1617 355 1493 b 208 1363 114 1186 55 1001 b -10 800 -36 577 40 374 b 81 268 152 174 243 110 b 251 47 265 -14 287 -74 b 317 -159 371 -242 455 -282 b 489 -299 526 -308 563 -310 b 452 -360 345 -422 242 -489 b 140 -556 42 -630 -57 -701 b -83 -719 -53 -740 -32 -725 b 126 -614 288 -507 459 -419 b 625 -333 803 -266 991 -248 b 1037 -244 1090 -237 1136 -251 b 1177 -264 1216 -301 1207 -347 b 1197 -395 1281 -380 1289 -342 b 1311 -240 1209 -183 1122 -178 z m 433 -109 b 404 -61 387 -9 375 45 b 403 37 432 31 463 27 b 507 23 551 26 595 34 b 619 39 621 73 592 67 b 514 52 436 63 366 92 b 363 110 360 128 358 145 b 346 248 347 352 353 455 b 356 508 360 560 363 613 b 364 639 328 645 310 642 b 288 638 253 620 251 594 b 237 457 225 313 236 173 b 196 207 161 248 134 293 b 30 464 22 672 63 863 b 136 1207 357 1604 751 1626 b 934 1636 1096 1540 1194 1389 b 1300 1227 1330 1025 1324 835 b 1319 654 1274 473 1197 309 b 1122 149 1014 -7 873 -116 b 804 -169 722 -215 634 -221 b 547 -227 477 -182 433 -109 z"},"w":{"x_min":0,"x_max":689,"ha":689,"o":"m 673 366 b 662 408 638 459 589 461 b 543 464 507 429 492 388 b 473 333 485 265 511 213 b 533 170 569 145 613 138 b 600 95 580 39 543 15 b 506 -10 478 50 467 77 b 449 122 442 170 437 220 b 433 272 435 330 413 379 b 395 421 325 385 317 353 b 315 343 313 333 311 323 b 301 279 297 233 290 188 b 284 154 279 118 268 85 b 262 66 254 48 242 32 b 238 27 223 13 222 13 b 198 14 181 67 174 84 b 159 117 150 150 142 185 b 134 220 130 255 125 291 b 120 323 125 376 96 397 b 94 399 92 401 90 402 b 90 402 90 402 89 402 b 87 403 84 403 81 404 b 79 404 78 404 76 404 b 76 404 75 404 75 404 b 66 405 57 402 49 397 b 48 397 48 396 48 396 b 46 395 44 394 43 393 b 43 392 42 392 42 392 b 41 391 39 389 38 387 b 6 351 9 290 9 244 b 9 197 14 148 26 103 b 49 19 97 -99 206 -70 b 270 -53 300 6 317 66 b 324 38 334 11 351 -12 b 388 -61 449 -82 508 -63 b 560 -47 598 -5 622 42 b 638 73 651 107 662 143 b 673 151 676 166 670 174 b 685 238 688 304 673 366 z m 623 175 b 581 180 552 237 541 271 b 530 309 514 397 560 421 b 614 448 632 325 634 296 b 636 255 632 215 623 175 z"},"-":{"x_min":0,"x_max":510,"ha":510,"o":"m 414 309 b 359 306 305 302 250 299 b 195 296 137 297 84 284 b 65 280 32 243 63 231 b 112 212 171 213 223 212 b 279 210 336 212 392 216 b 420 219 453 237 459 266 b 466 294 440 311 414 309 z"},"E":{"x_min":0,"x_max":1240,"ha":1240,"o":"m 1616 -220 b 1224 -391 809 -516 380 -550 b 326 -554 271 -556 216 -554 b 168 -552 116 -550 69 -535 b 36 -525 -3 -504 -17 -470 b -35 -425 -4 -377 24 -345 b 90 -270 170 -212 253 -159 b 339 -103 428 -53 520 -8 b 673 68 833 132 998 176 b 1054 186 1110 198 1163 212 b 1187 217 1216 241 1217 266 b 1218 291 1195 307 1171 304 b 1062 291 954 269 845 258 b 739 247 631 242 525 255 b 355 276 158 362 122 549 b 89 725 200 905 329 1014 b 464 1128 656 1206 831 1145 b 996 1087 1132 926 1161 752 b 1169 706 1256 735 1248 776 b 1232 865 1200 950 1146 1024 b 1092 1097 1023 1158 941 1198 b 745 1294 516 1236 339 1123 b 255 1069 180 998 121 917 b 58 829 5 730 -7 621 b -19 512 9 413 79 330 b 148 247 246 199 348 171 b 457 141 573 136 686 141 b 634 119 582 96 531 71 b 431 22 333 -34 239 -94 b 149 -152 61 -214 -12 -293 b -45 -329 -81 -374 -88 -425 b -93 -464 -75 -504 -46 -530 b 20 -589 128 -593 212 -596 b 332 -600 453 -586 573 -569 b 684 -553 795 -533 904 -505 b 1152 -444 1400 -362 1630 -248 b 1654 -236 1641 -209 1616 -220 z"},"s":{"x_min":0,"x_max":278,"ha":278,"o":"m 133 236 b 112 257 73 306 104 333 b 141 366 207 345 217 297 b 222 272 267 288 263 309 b 247 387 158 402 94 372 b 25 340 -24 245 27 178 b 51 147 86 128 118 107 b 149 87 192 58 200 18 b 210 -28 126 -18 103 -6 b 63 13 41 62 61 104 b 72 128 32 127 23 110 b -11 42 30 -33 101 -51 b 169 -67 264 -30 274 47 b 285 139 186 182 133 236 z"},">":{"x_min":0,"x_max":411,"ha":411,"o":"m 359 303 b 347 347 284 366 245 378 b 200 392 143 415 95 407 b 83 405 59 395 63 378 b 71 340 119 324 152 311 b 171 303 191 296 210 286 b 216 283 223 280 229 277 b 216 272 203 267 190 263 b 156 251 121 241 88 227 b 69 218 48 197 50 174 b 52 154 75 141 95 144 b 152 153 208 176 261 198 b 303 215 374 244 359 303 z"},"l":{"x_min":0,"x_max":159,"ha":159,"o":"m 145 62 b 141 104 139 147 138 190 b 135 276 135 362 135 448 b 135 622 143 797 138 971 b 137 1002 97 1007 74 1001 b 44 993 21 970 18 939 b 4 757 4 574 9 392 b 11 304 15 216 25 128 b 30 86 37 44 50 4 b 60 -30 75 -67 115 -65 b 127 -64 144 -55 146 -42 b 151 -8 148 27 145 62 z"},"8":{"x_min":0,"x_max":459,"ha":459,"o":"m 326 665 b 290 713 228 732 171 715 b 104 695 62 630 53 563 b 43 491 61 425 103 367 b 114 352 127 337 139 323 b 121 302 105 278 94 253 b 65 192 42 119 54 51 b 65 -5 101 -58 157 -76 b 218 -97 291 -80 342 -41 b 465 50 396 215 319 311 b 319 311 319 311 319 311 b 339 367 353 423 360 482 b 367 545 365 611 326 665 z m 320 54 b 318 -5 247 -31 197 -12 b 126 15 116 108 127 171 b 135 211 147 256 169 293 b 192 269 216 246 238 221 b 278 175 322 117 320 54 z m 198 464 b 171 515 147 603 183 655 b 205 687 247 669 270 647 b 299 621 310 580 313 541 b 317 479 304 412 285 350 b 253 386 219 421 198 464 z"},"\\":{"x_min":0,"x_max":541,"ha":541,"o":"m 491 -157 b 450 21 391 195 328 366 b 297 449 263 532 228 613 b 209 656 189 698 168 739 b 159 758 148 776 137 795 b 124 817 106 835 93 856 b 83 872 45 859 50 840 b 57 818 57 793 62 770 b 67 749 73 728 79 707 b 92 664 105 621 120 579 b 149 492 177 405 204 318 b 259 144 306 -32 359 -206 b 368 -236 415 -232 436 -224 b 460 -215 498 -188 491 -157 z"},"e":{"x_min":0,"x_max":348,"ha":348,"o":"m 310 200 b 299 165 287 131 272 98 b 259 68 244 31 216 12 b 154 -29 132 95 130 132 b 128 164 129 195 135 226 b 197 240 274 275 250 349 b 239 384 204 399 169 398 b 124 396 85 365 59 330 b 5 255 -8 155 18 67 b 44 -19 129 -62 212 -29 b 298 5 328 122 350 203 b 356 226 315 218 310 200 z m 164 308 b 167 315 175 339 182 342 b 194 347 204 327 204 316 b 204 283 174 270 145 263 b 150 278 156 293 164 308 z"},"b":{"x_min":0,"x_max":491,"ha":491,"o":"m 462 273 b 426 368 306 437 218 363 b 173 325 153 264 137 208 b 135 288 135 368 135 448 b 135 622 143 797 138 971 b 137 1002 97 1007 74 1001 b 44 993 21 970 18 939 b 4 757 4 574 9 392 b 11 304 15 216 25 128 b 30 86 37 44 50 4 b 60 -30 74 -67 115 -65 b 127 -64 144 -55 146 -42 b 149 -22 149 -2 148 19 b 154 103 172 188 203 267 b 216 300 236 347 276 354 b 317 361 346 314 359 282 b 363 272 366 262 369 251 b 272 223 209 108 194 16 b 187 -30 192 -85 238 -107 b 294 -133 364 -102 406 -64 b 493 18 503 166 462 273 z m 363 47 b 355 19 338 -16 310 -31 b 282 -46 255 -22 252 6 b 242 83 298 194 376 218 b 385 161 379 100 363 47 z"},"%":{"x_min":0,"x_max":806,"ha":806,"o":"m 734 740 b 748 766 734 793 706 798 b 673 803 642 784 624 758 b 517 598 430 422 350 247 b 309 159 270 69 235 -22 b 202 -109 166 -199 149 -291 b 140 -341 216 -324 231 -295 b 276 -209 310 -116 349 -27 b 387 60 425 147 466 233 b 548 406 644 571 734 740 z m 340 470 b 360 540 347 653 262 674 b 222 684 167 664 135 629 b 130 630 124 630 119 629 b 92 624 68 607 60 581 b 43 533 50 477 62 428 b 72 387 86 342 128 322 b 231 273 316 385 340 470 z m 167 612 b 196 642 253 653 272 609 b 292 561 267 490 244 448 b 238 437 232 427 224 418 b 221 414 218 410 214 407 b 212 404 210 403 208 403 b 200 406 192 424 188 434 b 167 488 177 544 171 599 b 171 604 170 608 167 612 z m 660 199 b 628 208 589 207 558 193 b 527 213 460 183 454 147 b 445 98 445 46 455 -3 b 464 -46 480 -93 520 -117 b 614 -174 717 -77 747 7 b 773 83 742 175 660 199 z m 636 -7 b 631 -13 619 -32 612 -35 b 614 -33 606 -29 603 -25 b 596 -16 592 -5 588 6 b 569 56 577 111 573 163 b 581 166 591 168 600 166 b 623 163 640 143 650 123 b 670 81 662 31 636 -7 z"},"m":{"x_min":0,"x_max":666,"ha":666,"o":"m 654 146 b 651 188 644 230 633 271 b 624 304 614 338 591 364 b 573 384 542 403 515 402 b 446 399 416 313 399 259 b 396 247 392 235 389 222 b 386 239 382 255 378 271 b 369 304 359 338 336 364 b 319 384 288 403 260 402 b 192 399 161 313 145 259 b 142 251 140 243 138 235 b 139 279 142 322 140 366 b 137 429 22 394 17 346 b 9 274 10 200 15 129 b 18 95 24 61 33 29 b 42 -1 51 -34 86 -41 b 102 -44 122 -34 129 -20 b 134 -10 137 -1 139 9 b 140 11 141 13 141 16 b 150 78 159 140 173 201 b 178 224 224 396 263 358 b 279 342 275 303 276 283 b 278 250 279 217 280 185 b 281 152 281 120 281 87 b 282 53 278 19 288 -15 b 294 -37 330 -37 347 -33 b 370 -27 394 -9 400 16 b 404 34 405 54 404 74 b 411 116 418 159 427 201 b 433 224 479 396 518 358 b 534 342 530 303 531 283 b 532 250 534 217 535 185 b 535 152 536 120 536 87 b 536 53 533 19 542 -15 b 549 -37 585 -37 601 -33 b 624 -27 649 -9 655 16 b 664 57 657 104 654 146 z"},"#":{"x_min":0,"x_max":743,"ha":743,"o":"m 681 450 b 645 452 610 453 574 453 b 577 561 584 669 586 777 b 587 805 551 812 531 808 b 506 804 473 786 469 758 b 453 656 447 551 446 447 b 426 445 406 443 385 440 b 386 544 391 649 397 753 b 398 781 359 789 339 785 b 313 781 280 762 275 733 b 256 628 248 522 248 416 b 187 402 127 385 68 364 b 45 356 42 321 70 331 b 129 351 188 368 248 381 b 248 359 248 337 249 315 b 189 299 129 280 70 258 b 48 250 53 217 78 226 b 135 247 192 265 251 279 b 251 276 251 272 251 269 b 255 194 261 119 272 45 b 283 -31 293 -114 326 -184 b 348 -231 426 -186 426 -146 b 428 -71 412 5 404 80 b 396 155 390 230 387 305 b 387 306 387 307 387 307 b 407 311 427 313 447 316 b 447 299 448 282 448 265 b 450 185 456 105 464 26 b 467 -14 473 -54 479 -93 b 485 -133 491 -180 512 -215 b 529 -244 579 -223 585 -196 b 594 -157 591 -115 588 -75 b 586 -35 584 6 582 46 b 577 128 575 210 573 292 b 573 304 573 315 573 326 b 594 327 614 328 635 328 b 660 328 677 366 645 366 b 621 366 597 365 573 364 b 573 382 573 399 573 417 b 603 417 632 416 661 414 b 672 414 686 418 691 429 b 695 438 692 450 681 450 z m 386 343 b 385 364 385 384 385 405 b 405 408 426 410 446 411 b 446 392 446 372 447 352 b 426 350 406 347 386 343 z"},",":{"x_min":0,"x_max":239,"ha":239,"o":"m 146 88 b 119 87 96 69 86 44 b 67 -8 49 -66 50 -122 b 51 -161 116 -140 126 -117 b 150 -63 166 -5 187 50 b 196 75 166 90 146 88 z"},"n":{"x_min":0,"x_max":411,"ha":411,"o":"m 399 146 b 396 188 389 230 378 271 b 369 304 359 338 336 364 b 319 384 288 403 260 402 b 192 399 161 313 145 259 b 142 251 140 243 138 235 b 139 279 142 322 140 366 b 137 429 22 394 17 346 b 9 274 10 200 15 129 b 18 95 24 61 33 29 b 42 -1 51 -34 86 -41 b 102 -44 122 -34 129 -20 b 134 -10 137 -1 139 9 b 140 11 141 13 141 16 b 150 78 159 140 173 201 b 178 224 224 396 263 358 b 279 342 275 303 276 283 b 278 250 279 217 280 185 b 281 152 281 120 281 87 b 282 53 278 19 288 -15 b 294 -37 330 -37 347 -33 b 370 -27 394 -9 400 16 b 410 57 402 104 399 146 z"},"h":{"x_min":0,"x_max":452,"ha":452,"o":"m 426 222 b 415 282 389 357 329 385 b 251 421 197 310 176 254 b 161 216 150 177 140 137 b 139 155 138 173 138 190 b 135 276 135 362 135 448 b 135 622 143 797 138 971 b 137 1002 97 1007 74 1001 b 44 993 21 970 18 939 b 4 757 4 574 9 392 b 11 304 15 216 25 128 b 30 86 37 44 50 4 b 60 -30 74 -67 115 -65 b 127 -64 144 -55 146 -42 b 147 -35 147 -28 148 -21 b 165 53 181 129 203 202 b 213 237 226 272 244 304 b 252 318 271 355 292 352 b 310 349 306 328 308 315 b 314 260 316 204 315 148 b 315 93 311 37 317 -17 b 326 -88 452 -44 448 17 b 444 86 438 155 426 222 z"},"z":{"x_min":0,"x_max":522,"ha":522,"o":"m 526 4 b 464 104 368 188 255 222 b 274 239 292 257 311 274 b 333 295 396 361 335 378 b 313 384 287 382 264 384 b 237 386 211 387 184 387 b 126 387 66 383 10 368 b -7 364 -17 335 7 338 b 96 347 185 357 274 341 b 274 341 275 341 275 341 b 256 330 238 316 220 303 b 182 275 143 248 105 219 b 88 206 71 183 78 161 b 85 138 107 133 129 132 b 227 129 322 49 379 -25 b 439 -102 471 -203 459 -301 b 447 -401 404 -498 324 -562 b 251 -621 118 -679 36 -603 b -65 -509 12 -359 67 -264 b 82 -237 34 -237 23 -257 b -35 -359 -102 -493 -26 -605 b 45 -708 186 -681 284 -638 b 405 -586 510 -493 560 -369 b 610 -245 597 -109 526 4 z"},"B":{"x_min":0,"x_max":1678,"ha":1678,"o":"m 1387 -326 b 1497 -206 1603 -50 1616 117 b 1628 286 1513 408 1370 477 b 1208 555 1023 579 845 587 b 823 588 801 589 778 590 b 774 590 759 591 747 592 b 749 595 751 597 751 597 b 766 612 781 627 797 642 b 854 696 914 746 972 799 b 1031 854 1089 911 1140 974 b 1185 1032 1235 1103 1237 1180 b 1238 1259 1174 1298 1105 1316 b 1018 1339 925 1340 836 1332 b 668 1319 504 1274 352 1202 b 278 1166 205 1124 139 1074 b 79 1030 19 976 -12 906 b -23 882 -29 853 -7 833 b 6 820 41 842 25 857 b 1 882 45 936 60 955 b 85 987 114 1014 146 1038 b 190 1072 236 1102 285 1129 b 280 1121 278 1112 277 1102 b 272 861 277 619 287 378 b 297 143 308 -95 354 -326 b 366 -390 381 -452 399 -514 b 406 -538 412 -579 439 -588 b 459 -595 485 -585 495 -567 b 498 -562 498 -557 497 -553 b 497 -553 497 -553 497 -552 b 496 -550 494 -548 493 -546 b 493 -546 493 -546 493 -546 b 495 -548 496 -549 497 -550 b 497 -550 497 -550 497 -550 b 498 -548 495 -529 496 -534 b 495 -521 493 -509 491 -496 b 487 -467 483 -439 479 -410 b 471 -356 464 -303 457 -249 b 443 -139 434 -30 426 80 b 411 303 406 526 403 748 b 402 877 400 1006 398 1134 b 397 1157 377 1166 357 1167 b 498 1235 651 1279 807 1294 b 891 1301 977 1302 1060 1285 b 1094 1277 1140 1268 1161 1236 b 1183 1203 1173 1161 1157 1126 b 1127 1062 1073 1006 1024 956 b 971 903 913 855 855 808 b 799 762 742 715 688 665 b 660 639 622 610 615 569 b 608 526 644 498 683 491 b 717 485 755 489 790 487 b 833 486 876 483 919 478 b 1002 470 1086 456 1167 431 b 1292 394 1438 326 1481 192 b 1526 50 1433 -106 1349 -213 b 1130 -495 797 -630 465 -731 b 446 -737 422 -753 425 -776 b 427 -800 453 -801 471 -798 b 814 -741 1150 -585 1387 -326 z m 732 593 b 731 593 731 593 730 593 b 731 593 731 593 732 593 z"},"K":{"x_min":0,"x_max":1714,"ha":1714,"o":"m 697 -763 b 719 -751 722 -726 705 -719 b 700 -708 701 -685 700 -677 b 699 -663 698 -648 696 -634 b 694 -599 692 -564 691 -528 b 688 -459 685 -389 683 -320 b 679 -180 675 -40 675 100 b 675 117 676 135 676 153 b 836 80 992 -2 1148 -83 b 1455 -242 1766 -406 2102 -492 b 2157 -507 2228 -418 2154 -398 b 1831 -308 1530 -164 1229 -19 b 1049 68 865 157 676 230 b 677 237 677 244 677 251 b 894 345 1092 488 1274 636 b 1400 739 1522 850 1630 972 b 1684 1031 1734 1094 1781 1160 b 1826 1224 1876 1292 1904 1365 b 1919 1403 1926 1443 1915 1483 b 1909 1505 1867 1491 1872 1471 b 1894 1391 1839 1314 1797 1249 b 1756 1184 1710 1122 1661 1062 b 1564 944 1454 837 1339 737 b 1140 565 921 397 677 291 b 681 506 691 721 709 936 b 723 1093 738 1251 759 1407 b 768 1475 652 1454 645 1400 b 598 1026 568 648 565 271 b 475 302 384 329 292 350 b 217 367 127 383 52 357 b -2 337 -57 281 -8 226 b 40 172 125 152 194 148 b 272 142 350 153 426 170 b 470 179 513 191 555 205 b 558 204 561 203 564 202 b 564 11 571 -179 585 -368 b 592 -450 598 -533 610 -614 b 615 -652 622 -690 632 -727 b 640 -760 663 -781 697 -763 z m 349 193 b 276 182 199 178 128 200 b 95 210 58 227 34 252 b 2 285 31 313 65 324 b 144 348 237 320 313 296 b 377 275 440 252 503 227 b 453 212 401 201 349 193 z"},"R":{"x_min":0,"x_max":1241,"ha":1241,"o":"m 1387 -183 b 1131 -73 876 37 628 163 b 618 168 608 174 598 179 b 616 196 635 213 653 229 b 698 269 743 309 789 348 b 883 429 976 511 1062 601 b 1142 684 1228 778 1274 885 b 1295 936 1306 995 1283 1048 b 1261 1100 1209 1131 1159 1153 b 1046 1203 917 1202 796 1183 b 683 1165 573 1130 469 1080 b 464 1077 459 1075 453 1072 b 456 1120 459 1169 463 1217 b 465 1245 425 1252 406 1249 b 382 1245 344 1225 342 1197 b 336 1131 331 1064 327 998 b 266 956 209 910 157 858 b 67 768 -15 654 -18 523 b -19 498 30 511 31 531 b 41 648 104 744 183 827 b 226 872 274 912 324 949 b 304 580 319 208 384 -156 b 395 -218 407 -279 422 -340 b 435 -396 446 -455 480 -502 b 503 -535 580 -500 558 -463 b 533 -419 528 -369 520 -320 b 512 -264 503 -209 496 -154 b 483 -63 473 28 464 119 b 471 109 479 100 489 93 b 548 52 620 24 685 -8 b 751 -41 817 -72 884 -103 b 1021 -166 1159 -228 1300 -281 b 1332 -294 1372 -281 1394 -255 b 1413 -234 1419 -196 1387 -183 z m 459 178 b 442 398 436 619 443 839 b 445 902 447 965 451 1028 b 452 1028 453 1029 454 1030 b 553 1082 660 1120 771 1140 b 891 1162 1023 1166 1136 1112 b 1187 1087 1229 1041 1225 981 b 1222 924 1187 871 1153 827 b 1082 737 1002 653 916 577 b 829 498 738 425 647 350 b 603 314 560 278 517 240 b 496 222 470 204 459 178 z"},"T":{"x_min":0,"x_max":1083,"ha":1083,"o":"m 949 -297 b 946 -248 942 -198 940 -149 b 934 -47 930 56 928 158 b 925 361 928 563 934 765 b 936 832 937 898 939 965 b 1098 1014 1261 1051 1427 1068 b 1507 1077 1589 1084 1669 1077 b 1723 1072 1856 1062 1848 980 b 1844 936 1914 951 1921 984 b 1934 1049 1882 1094 1825 1112 b 1760 1133 1690 1137 1622 1136 b 1484 1133 1345 1111 1211 1081 b 1120 1060 1030 1035 940 1006 b 941 1043 943 1079 944 1116 b 945 1147 902 1151 880 1146 b 851 1138 826 1115 825 1084 b 823 1044 821 1004 820 965 b 692 918 567 865 443 810 b 371 777 300 744 229 709 b 195 693 161 677 127 660 b 109 651 90 642 72 633 b 66 630 59 627 53 624 b 46 620 39 617 31 614 b 25 613 22 616 21 620 b 40 641 4 649 -10 634 b -22 622 -24 604 -12 591 b 6 570 37 581 58 591 b 120 619 181 650 243 680 b 370 740 498 799 628 852 b 691 878 754 902 818 925 b 813 772 810 619 810 466 b 809 263 811 58 832 -144 b 838 -200 845 -256 855 -311 b 860 -338 865 -364 871 -391 b 878 -420 889 -445 901 -473 b 911 -498 952 -474 953 -454 b 954 -429 956 -405 955 -380 b 954 -352 951 -325 949 -297 z"},"P":{"x_min":0,"x_max":1539,"ha":1539,"o":"m 1330 1593 b 1035 1663 717 1567 465 1413 b 329 1330 202 1226 102 1102 b 54 1041 12 974 -9 899 b -24 848 -39 759 25 733 b 44 726 77 756 54 765 b -2 788 29 884 44 924 b 67 987 105 1044 148 1096 b 233 1198 337 1286 448 1358 b 675 1505 962 1599 1234 1557 b 1356 1537 1476 1489 1566 1403 b 1663 1311 1703 1180 1682 1048 b 1660 909 1583 790 1493 684 b 1406 582 1308 488 1203 404 b 1086 310 958 226 823 160 b 760 130 694 104 626 86 b 618 357 625 629 638 900 b 646 1064 656 1227 662 1391 b 663 1424 618 1429 596 1423 b 564 1414 540 1391 537 1358 b 514 1060 499 760 496 461 b 494 329 496 196 501 64 b 462 61 423 61 384 65 b 353 68 318 54 303 26 b 291 2 302 -29 331 -31 b 390 -37 449 -35 506 -28 b 514 -159 526 -289 544 -418 b 555 -499 567 -580 584 -660 b 600 -732 620 -803 666 -861 b 689 -890 764 -848 744 -813 b 679 -695 673 -553 659 -421 b 644 -283 635 -143 629 -4 b 835 50 1028 169 1194 296 b 1313 387 1424 491 1524 604 b 1622 716 1712 842 1748 989 b 1783 1132 1761 1282 1666 1396 b 1581 1499 1458 1562 1330 1593 z"},"|":{"x_min":0,"x_max":252,"ha":252,"o":"m 179 371 b 177 457 176 544 174 630 b 172 713 173 806 133 881 b 118 907 75 883 74 859 b 70 773 74 688 68 602 b 62 512 57 422 54 332 b 49 155 45 -26 65 -203 b 73 -278 202 -229 202 -166 b 199 13 185 192 179 371 z"},"t":{"x_min":0,"x_max":159,"ha":159,"o":"m 297 687 b 244 688 191 687 138 686 b 140 781 141 876 138 971 b 137 1002 97 1007 74 1001 b 44 993 21 970 18 939 b 12 853 8 766 7 680 b -43 677 -94 672 -144 667 b -166 665 -183 628 -152 631 b -99 636 -47 640 6 643 b 6 559 7 476 9 392 b 11 304 15 216 25 128 b 30 86 37 44 50 4 b 60 -30 75 -67 116 -65 b 127 -64 144 -55 146 -42 b 151 -8 148 27 145 62 b 141 104 139 147 138 190 b 135 276 135 362 135 448 b 135 515 136 581 137 648 b 188 649 238 650 288 649 b 312 649 329 687 297 687 z"},"M":{"x_min":0,"x_max":1646,"ha":1646,"o":"m 1669 -688 b 1554 -28 1544 642 1463 1305 b 1453 1387 1443 1469 1428 1551 b 1422 1588 1414 1626 1405 1663 b 1397 1694 1390 1729 1373 1757 b 1338 1815 1270 1790 1226 1757 b 1171 1716 1132 1653 1095 1597 b 926 1343 828 1054 700 780 b 674 723 614 590 534 649 b 507 670 487 700 471 730 b 449 771 429 813 408 854 b 322 1023 237 1193 155 1364 b 153 1367 151 1368 149 1370 b 146 1398 106 1402 85 1397 b 55 1389 29 1365 28 1334 b 17 1071 14 808 21 545 b 28 285 38 24 75 -233 b 86 -305 98 -377 114 -448 b 129 -513 147 -576 183 -633 b 202 -664 263 -634 252 -599 b 213 -484 201 -358 187 -237 b 173 -110 164 19 158 147 b 146 405 143 664 145 923 b 145 1039 146 1155 148 1271 b 209 1144 272 1017 335 891 b 370 822 402 747 444 681 b 473 635 516 590 575 596 b 638 602 681 662 710 711 b 749 776 776 849 806 918 b 866 1057 924 1197 992 1333 b 1026 1401 1062 1467 1101 1531 b 1139 1592 1178 1657 1229 1709 b 1248 1729 1290 1769 1319 1745 b 1346 1723 1346 1669 1350 1637 b 1362 1556 1366 1474 1372 1393 b 1399 1061 1411 729 1428 396 b 1448 22 1473 -353 1535 -724 b 1547 -795 1680 -751 1669 -688 z"},"g":{"x_min":0,"x_max":444,"ha":444,"o":"m 437 4 b 433 80 429 155 420 230 b 416 260 413 291 408 321 b 403 351 399 363 391 392 b 379 440 297 419 291 375 b 291 375 291 374 291 373 b 286 376 280 379 274 382 b 236 398 191 392 155 375 b 77 339 30 258 12 178 b -3 109 -4 13 63 -30 b 92 -47 129 -46 158 -30 b 190 -13 205 22 219 54 b 244 116 262 180 282 244 b 282 189 283 134 284 79 b 286 -1 288 -81 288 -161 b 215 -162 144 -186 81 -224 b 9 -268 -62 -331 -100 -407 b -137 -484 -137 -578 -73 -640 b -19 -693 62 -717 136 -708 b 475 -671 448 -243 437 4 z m 215 164 b 206 136 197 108 186 81 b 178 61 163 10 138 1 b 113 23 111 59 110 92 b 110 133 117 176 133 215 b 145 245 164 290 193 309 b 214 324 239 310 259 293 b 243 251 229 207 215 164 z m 287 -285 b 287 -312 286 -338 285 -364 b 284 -375 284 -386 283 -398 b 283 -399 283 -406 283 -409 b 282 -412 282 -419 281 -422 b 276 -473 263 -522 238 -568 b 205 -626 154 -654 86 -654 b 10 -653 -64 -599 -75 -521 b -88 -425 -18 -344 53 -288 b 120 -235 202 -197 288 -199 b 288 -228 288 -257 287 -285 z"},"j":{"x_min":0,"x_max":177,"ha":177,"o":"m 152 230 b 148 260 145 291 140 321 b 135 351 131 363 123 392 b 111 440 29 419 23 375 b 10 277 15 178 16 79 b 18 -1 20 -81 20 -161 b -53 -162 -124 -186 -187 -224 b -259 -268 -330 -331 -368 -407 b -405 -484 -405 -578 -341 -640 b -287 -693 -206 -717 -132 -708 b 207 -671 180 -243 169 4 b 165 80 161 155 152 230 z m 19 -285 b 19 -312 18 -338 17 -364 b 16 -375 16 -386 15 -398 b 15 -399 15 -406 15 -409 b 14 -412 14 -419 13 -422 b 8 -473 -5 -522 -30 -568 b -63 -626 -114 -654 -182 -654 b -258 -653 -332 -599 -343 -521 b -356 -425 -286 -344 -215 -288 b -148 -235 -66 -197 20 -199 b 20 -228 20 -257 19 -285 z m 182 662 b 172 672 156 668 146 662 b 102 637 73 589 61 538 b 61 539 61 540 60 540 b 50 556 40 570 21 576 b 7 580 -23 569 -15 549 b 2 510 26 476 58 447 b 60 445 64 443 67 443 b 80 437 101 446 104 460 b 105 461 105 462 106 462 b 131 515 156 567 179 621 b 185 633 195 651 182 662 z"},"i":{"x_min":0,"x_max":151,"ha":151,"o":"m 131 159 b 131 226 135 293 135 360 b 135 391 94 395 73 390 b 43 382 20 360 18 329 b 12 260 10 191 14 123 b 16 90 20 57 27 24 b 33 -8 41 -42 73 -57 b 90 -66 112 -53 122 -39 b 140 -9 136 25 134 58 b 132 92 132 126 131 159 z m 178 662 b 168 672 152 668 142 662 b 99 637 69 589 58 538 b 57 539 57 540 56 540 b 46 556 36 570 17 576 b 3 580 -27 569 -18 549 b -2 510 22 476 54 447 b 56 445 60 443 63 443 b 76 437 97 446 100 460 b 101 461 101 462 102 462 b 127 515 152 567 175 621 b 181 633 191 651 178 662 z"},"y":{"x_min":0,"x_max":458,"ha":458,"o":"m 451 4 b 447 80 443 155 434 230 b 430 260 427 291 422 321 b 417 351 413 363 405 392 b 393 439 313 419 305 377 b 280 323 276 257 262 199 b 255 167 246 135 235 104 b 226 81 214 37 192 23 b 148 -5 135 139 134 159 b 131 226 143 291 146 358 b 147 387 108 394 87 391 b 60 386 28 367 22 337 b 4 256 1 167 24 87 b 45 16 105 -37 182 -21 b 250 -7 273 77 290 135 b 292 143 295 151 297 159 b 297 132 298 106 298 79 b 300 -1 302 -81 302 -161 b 229 -162 158 -186 95 -224 b 23 -268 -48 -331 -86 -407 b -123 -484 -123 -578 -59 -640 b -5 -693 76 -717 150 -708 b 489 -671 462 -243 451 4 z m 301 -285 b 301 -312 300 -338 299 -364 b 298 -375 298 -386 297 -398 b 297 -399 297 -406 297 -409 b 296 -412 296 -419 295 -422 b 290 -473 277 -522 252 -568 b 219 -626 168 -654 100 -654 b 24 -653 -50 -599 -61 -521 b -74 -425 -4 -344 67 -288 b 134 -235 216 -197 302 -199 b 302 -228 302 -257 301 -285 z"},"@":{"x_min":0,"x_max":888,"ha":888,"o":"m 749 555 b 696 623 622 677 538 699 b 450 722 354 703 276 658 b 106 558 29 346 55 155 b 68 53 116 -48 201 -110 b 287 -174 402 -193 501 -148 b 538 -131 531 -78 486 -92 b 389 -122 293 -92 225 -18 b 153 60 127 169 133 273 b 139 376 173 481 244 558 b 308 628 404 665 498 643 b 595 622 675 548 722 463 b 778 361 769 247 715 145 b 701 119 675 76 639 91 b 607 105 592 148 587 180 b 578 236 583 293 576 349 b 571 385 565 452 519 449 b 522 452 524 456 524 461 b 522 493 497 517 466 521 b 424 525 384 499 355 473 b 288 413 248 321 242 232 b 240 191 259 149 304 143 b 349 137 387 169 412 203 b 435 234 454 268 471 302 b 474 309 478 316 481 323 b 474 282 466 238 465 230 b 461 181 461 134 478 86 b 514 -17 634 -29 716 28 b 796 83 829 189 837 281 b 845 382 812 476 749 555 z m 415 328 b 403 305 392 281 378 260 b 372 251 365 242 357 234 b 350 281 368 335 390 377 b 407 408 445 486 489 444 b 490 442 492 441 493 441 b 456 419 433 362 415 328 z"},".":{"x_min":0,"x_max":182,"ha":182,"o":"m 132 -17 b 131 -10 131 -3 130 3 b 129 11 127 21 123 27 b 116 38 104 41 92 39 b 79 37 62 28 57 16 b 52 6 51 -3 50 -14 b 50 -22 50 -30 50 -39 b 50 -47 57 -55 64 -58 b 73 -62 85 -62 93 -59 b 111 -54 133 -38 132 -17 z"},"p":{"x_min":0,"x_max":449,"ha":449,"o":"m 410 339 b 383 380 329 417 279 402 b 229 388 204 336 187 292 b 166 241 154 187 146 133 b 146 144 146 156 147 168 b 148 234 153 299 150 365 b 147 429 33 393 26 345 b 8 214 13 78 17 -54 b 19 -118 22 -181 28 -245 b 33 -300 34 -380 79 -419 b 101 -438 140 -418 147 -393 b 150 -382 152 -371 152 -360 b 153 -359 153 -358 153 -357 b 161 -258 167 -158 173 -59 b 179 36 184 132 208 225 b 219 266 232 313 258 347 b 274 368 299 378 322 358 b 338 343 341 314 344 294 b 344 292 345 291 345 289 b 308 272 275 247 250 215 b 222 179 197 129 201 83 b 207 29 265 10 312 20 b 377 33 421 92 437 153 b 453 215 445 285 410 339 z m 338 151 b 330 124 308 84 278 74 b 223 56 265 167 274 183 b 292 213 318 238 349 254 b 351 219 348 184 338 151 z"},"X":{"x_min":0,"x_max":1001,"ha":1001,"o":"m 1417 -276 b 1150 -367 864 -207 695 -5 b 593 117 517 256 450 400 b 561 550 679 695 802 835 b 852 893 904 949 955 1006 b 982 1035 1009 1063 1035 1091 b 1048 1106 1061 1120 1074 1134 b 1083 1146 1093 1161 1107 1167 b 1119 1172 1136 1199 1116 1206 b 1084 1216 1059 1203 1034 1183 b 1005 1161 978 1135 951 1109 b 899 1059 848 1008 798 955 b 699 850 603 742 512 630 b 476 586 441 542 406 498 b 363 596 323 694 279 789 b 243 869 204 948 159 1023 b 124 1082 74 1162 -7 1124 b -32 1113 -18 1085 7 1096 b 50 1116 84 1057 102 1028 b 123 994 143 959 161 923 b 197 854 229 783 258 711 b 293 622 327 531 362 441 b 235 274 115 102 4 -76 b -82 -215 -166 -356 -237 -503 b -249 -528 -238 -554 -210 -559 b -180 -564 -146 -546 -131 -520 b -62 -401 3 -279 74 -161 b 145 -44 219 72 296 185 b 332 237 368 288 405 339 b 412 322 420 305 427 288 b 543 37 716 -217 988 -315 b 1130 -366 1286 -369 1428 -315 b 1454 -305 1448 -266 1417 -276 z"},"*":{"x_min":0,"x_max":313,"ha":313,"o":"m 251 661 b 231 663 212 664 192 665 b 204 676 216 688 227 699 b 234 706 234 718 225 722 b 215 728 202 721 195 714 b 187 706 179 698 171 691 b 170 707 168 724 167 741 b 165 761 129 748 129 731 b 129 722 129 714 129 705 b 123 710 117 715 111 720 b 94 733 56 708 74 693 b 87 683 100 672 113 661 b 98 659 83 657 68 654 b 44 649 43 616 71 622 b 84 624 96 626 109 627 b 97 615 86 602 74 590 b 55 569 91 561 105 576 b 114 585 124 595 133 605 b 134 586 135 567 137 549 b 139 525 183 539 182 561 b 181 572 180 583 179 594 b 183 589 188 584 192 579 b 206 563 244 588 228 606 b 222 614 216 621 209 628 b 216 628 224 627 231 626 b 252 624 278 658 251 661 z"},"Y":{"x_min":0,"x_max":1434,"ha":1434,"o":"m 1433 459 b 1404 461 1376 457 1348 449 b 1349 501 1348 553 1344 604 b 1335 713 1316 821 1280 925 b 1247 1023 1202 1128 1138 1210 b 1080 1285 991 1321 906 1265 b 826 1212 781 1105 746 1019 b 667 824 635 613 552 419 b 531 370 507 322 478 277 b 453 238 419 193 376 173 b 284 129 215 263 187 328 b 143 433 127 543 117 655 b 106 778 104 902 103 1025 b 102 1088 97 1150 94 1213 b 93 1242 41 1226 39 1204 b 32 1142 22 1081 18 1019 b 15 958 11 897 9 836 b 5 722 3 608 17 494 b 38 328 135 -3 369 93 b 461 130 514 226 557 310 b 602 398 634 492 662 586 b 717 776 755 976 856 1149 b 880 1189 910 1237 957 1251 b 1004 1266 1049 1236 1079 1203 b 1149 1128 1183 1018 1207 922 b 1251 755 1262 580 1248 408 b 1208 388 1169 366 1130 343 b 1036 284 949 216 869 140 b 714 -8 557 -202 540 -423 b 533 -517 554 -638 637 -694 b 739 -763 867 -702 948 -630 b 1113 -480 1210 -269 1270 -58 b 1311 87 1338 239 1346 391 b 1368 401 1391 407 1414 408 b 1438 409 1472 455 1433 459 z m 1061 -305 b 1016 -394 960 -478 890 -549 b 861 -579 827 -610 786 -622 b 746 -634 711 -618 684 -588 b 620 -516 627 -394 651 -308 b 679 -208 736 -118 800 -37 b 921 115 1072 241 1241 336 b 1240 322 1238 307 1236 293 b 1208 89 1155 -120 1061 -305 z"},"c":{"x_min":0,"x_max":341,"ha":341,"o":"m 301 185 b 291 156 279 127 264 99 b 250 75 228 40 199 31 b 141 13 129 110 128 147 b 127 199 141 256 165 301 b 172 314 186 344 201 345 b 232 349 243 283 246 264 b 250 238 298 254 294 277 b 288 320 280 364 242 391 b 205 418 158 407 121 386 b 33 335 1 220 5 124 b 7 79 21 27 56 -4 b 92 -38 143 -44 188 -25 b 272 10 318 107 343 188 b 350 212 307 204 301 185 z"},"!":{"x_min":0,"x_max":231,"ha":231,"o":"m 178 507 b 177 566 175 627 167 686 b 159 744 150 808 116 857 b 106 870 77 863 75 846 b 66 786 72 726 71 666 b 69 602 67 539 63 476 b 57 350 50 224 50 98 b 50 65 94 59 118 65 b 149 74 177 98 178 132 b 182 257 180 382 178 507 z m 118 -26 b 106 -29 91 -39 88 -53 b 82 -82 81 -113 85 -142 b 89 -162 110 -167 128 -162 b 147 -157 164 -142 165 -121 b 166 -92 161 -63 151 -36 b 147 -23 128 -23 118 -26 z"},"/":{"x_min":0,"x_max":697,"ha":697,"o":"m 616 801 b 585 807 556 788 540 764 b 433 612 340 450 252 287 b 209 206 168 124 130 40 b 111 0 94 -42 77 -83 b 63 -119 38 -166 56 -204 b 68 -228 105 -210 115 -194 b 159 -118 196 -36 237 43 b 278 123 320 204 363 283 b 450 442 546 594 642 747 b 656 771 641 797 616 801 z"},"[":{"x_min":0,"x_max":393,"ha":393,"o":"m 298 -194 b 267 -196 243 -194 229 -164 b 213 -130 209 -91 204 -54 b 193 35 192 126 189 215 b 183 398 183 581 172 764 b 170 813 167 861 167 910 b 167 930 167 950 171 969 b 173 979 176 987 179 996 b 180 998 181 1001 181 1003 b 191 1006 200 1006 210 999 b 225 987 262 1010 245 1025 b 217 1049 186 1041 156 1032 b 108 1018 83 979 73 931 b 50 822 54 706 52 596 b 50 481 50 365 50 250 b 51 137 50 22 65 -91 b 72 -148 80 -210 118 -255 b 160 -306 233 -303 291 -284 b 314 -276 342 -259 343 -231 b 344 -206 322 -193 298 -194 z"},"6":{"x_min":0,"x_max":541,"ha":541,"o":"m 174 -78 b 238 -117 323 -113 385 -74 b 437 -42 478 10 488 71 b 499 138 475 209 427 256 b 373 309 289 328 217 305 b 205 301 194 296 184 291 b 184 356 191 422 206 486 b 219 540 237 595 273 639 b 294 665 323 687 357 676 b 386 666 408 644 426 621 b 438 606 477 629 465 644 b 425 699 368 730 300 718 b 222 705 166 638 128 574 b 89 507 68 432 58 357 b 48 277 45 193 62 114 b 78 40 107 -36 174 -78 z m 213 256 b 267 288 333 274 379 235 b 420 201 444 149 443 95 b 443 46 416 -16 364 -31 b 254 -64 210 80 196 160 b 192 185 188 210 186 235 b 195 243 204 250 213 256 z"},"r":{"x_min":0,"x_max":337,"ha":337,"o":"m 337 221 b 332 276 325 342 290 387 b 260 426 213 418 184 383 b 157 350 144 307 133 265 b 134 302 134 340 130 377 b 124 435 26 402 19 359 b 6 282 12 201 17 123 b 20 83 30 -61 103 -15 b 122 -3 127 19 129 41 b 129 41 129 42 129 42 b 142 133 161 229 192 315 b 197 331 208 364 224 375 b 224 375 224 374 224 374 b 225 371 226 367 226 363 b 227 352 227 341 227 330 b 230 284 229 238 230 192 b 231 137 341 168 337 221 z"},"2":{"x_min":0,"x_max":619,"ha":619,"o":"m 124 -115 b 199 -126 281 -99 338 -49 b 339 -48 340 -47 341 -46 b 346 -47 351 -48 356 -49 b 420 -64 486 -68 550 -48 b 575 -41 578 -3 547 -12 b 489 -30 431 -25 375 -12 b 414 33 443 86 466 141 b 497 215 521 290 536 368 b 561 499 552 674 400 719 b 329 740 257 696 213 643 b 167 587 144 515 149 442 b 150 419 193 433 192 454 b 189 508 202 562 232 608 b 261 650 313 698 368 684 b 419 672 435 598 439 554 b 445 499 438 444 426 390 b 402 280 364 167 304 71 b 293 53 280 36 265 20 b 210 35 154 41 99 16 b 71 2 46 -26 51 -60 b 55 -96 93 -111 124 -115 z m 166 -6 b 186 -5 206 -7 226 -11 b 219 -15 212 -19 205 -23 b 189 -30 170 -36 151 -33 b 144 -32 135 -31 133 -23 b 129 -7 157 -7 166 -6 z"},"{":{"x_min":0,"x_max":621,"ha":621,"o":"m 523 -264 b 499 -280 463 -270 441 -255 b 412 -236 393 -207 379 -176 b 347 -104 345 -19 331 58 b 324 99 317 141 310 182 b 304 218 298 255 279 286 b 263 313 241 331 216 342 b 267 411 304 489 332 570 b 351 626 366 684 379 742 b 386 772 393 801 398 831 b 403 862 411 906 449 912 b 469 915 486 947 457 945 b 395 940 367 888 341 839 b 307 776 285 708 258 643 b 210 524 156 405 64 313 b 47 296 43 265 65 251 b 87 237 114 243 135 255 b 131 252 137 255 148 247 b 159 240 166 227 171 215 b 186 181 189 142 195 106 b 209 24 221 -59 243 -140 b 262 -211 295 -280 362 -317 b 423 -350 505 -344 558 -297 b 591 -268 553 -246 523 -264 z m 136 255 b 138 256 139 257 140 258 b 139 257 137 256 136 255 z m 141 258 b 142 259 143 259 145 260 b 143 259 142 258 141 258 z"},"9":{"x_min":0,"x_max":576,"ha":576,"o":"m 308 -69 b 296 -97 305 -124 337 -130 b 371 -135 403 -115 422 -88 b 491 13 517 138 524 258 b 528 320 525 381 515 442 b 506 497 495 562 468 612 b 457 631 436 650 415 654 b 408 676 385 696 363 699 b 322 705 277 681 244 661 b 172 618 113 550 77 475 b 59 436 44 391 52 348 b 60 308 86 268 128 258 b 209 236 282 301 323 365 b 347 401 363 443 376 484 b 383 507 390 531 396 554 b 398 560 400 571 403 583 b 404 566 402 549 402 538 b 403 507 404 476 405 445 b 405 383 405 320 399 258 b 388 143 354 36 308 -69 z m 375 631 b 362 607 356 577 348 551 b 340 521 332 491 321 461 b 306 419 277 349 230 332 b 211 326 195 342 184 356 b 172 373 168 397 172 418 b 181 474 221 528 259 569 b 277 588 297 605 318 620 b 330 629 341 634 354 639 b 370 645 372 649 377 635 b 376 634 375 632 375 631 z"}," ":{"x_min":0,"x_max":260,"ha":260,"o":""},"I":{"x_min":0,"x_max":808,"ha":808,"o":"m 270 -651 b 272 -662 285 -666 294 -662 b 399 -624 504 -589 611 -558 b 624 -667 640 -776 662 -883 b 668 -910 713 -893 712 -870 b 709 -758 704 -646 699 -534 b 828 -500 959 -472 1091 -449 b 1118 -445 1120 -408 1088 -413 b 956 -436 826 -464 697 -498 b 688 -315 678 -132 675 51 b 670 357 674 662 693 968 b 698 1058 704 1149 711 1239 b 777 1256 843 1270 910 1282 b 1020 1302 1138 1313 1247 1282 b 1272 1275 1303 1317 1270 1324 b 1083 1362 896 1322 714 1276 b 719 1345 725 1414 731 1483 b 737 1548 631 1527 625 1477 b 615 1400 607 1323 600 1246 b 440 1201 282 1147 133 1078 b 89 1058 37 1037 0 1005 b -26 982 -41 942 -12 914 b 3 900 41 925 24 942 b -17 981 100 1026 123 1037 b 174 1062 227 1083 279 1103 b 382 1142 487 1177 593 1207 b 594 1207 595 1208 596 1208 b 577 990 567 771 563 551 b 558 243 566 -66 593 -373 b 597 -423 602 -473 608 -523 b 501 -554 395 -589 291 -628 b 282 -631 268 -639 270 -651 z"},"H":{"x_min":0,"x_max":1881,"ha":1881,"o":"m 1884 429 b 1831 429 1778 429 1726 427 b 1724 613 1727 798 1734 984 b 1740 1145 1745 1306 1754 1467 b 1756 1498 1711 1503 1690 1497 b 1660 1489 1637 1466 1634 1435 b 1622 1289 1609 1143 1602 997 b 1595 851 1593 705 1594 560 b 1595 514 1596 468 1597 422 b 1276 405 957 352 648 268 b 654 371 663 474 676 577 b 689 687 706 797 724 906 b 737 982 609 958 598 898 b 557 679 529 455 519 231 b 473 217 427 202 382 187 b 246 141 112 89 -19 30 b -47 18 -32 -13 -4 -1 b 165 74 340 139 517 193 b 511 27 515 -138 532 -302 b 542 -405 546 -526 604 -614 b 629 -651 707 -615 689 -573 b 654 -488 654 -389 648 -299 b 642 -201 639 -102 639 -4 b 639 74 641 152 645 230 b 909 301 1178 349 1450 373 b 1500 377 1549 380 1598 383 b 1605 156 1624 -71 1660 -296 b 1672 -377 1687 -458 1706 -538 b 1714 -576 1724 -612 1735 -649 b 1745 -681 1757 -719 1785 -739 b 1799 -750 1837 -735 1826 -714 b 1818 -702 1818 -689 1818 -675 b 1818 -656 1816 -639 1814 -620 b 1810 -584 1805 -548 1800 -513 b 1790 -442 1780 -370 1772 -299 b 1754 -156 1743 -13 1735 131 b 1731 216 1728 302 1727 388 b 1776 389 1825 390 1874 390 b 1899 390 1917 428 1884 429 z"},"4":{"x_min":0,"x_max":517,"ha":517,"o":"m 166 113 b 229 104 282 140 336 164 b 337 139 338 115 339 91 b 341 58 344 23 352 -10 b 357 -33 363 -73 388 -83 b 407 -91 429 -80 439 -63 b 454 -41 452 -3 453 23 b 455 56 455 89 456 122 b 457 188 460 254 462 320 b 466 453 470 585 465 718 b 463 774 363 742 357 700 b 338 562 336 425 336 286 b 336 259 336 231 336 203 b 317 196 298 188 278 181 b 253 172 223 169 204 191 b 167 235 174 314 179 367 b 185 433 199 497 211 562 b 217 594 223 626 226 659 b 228 685 227 716 200 727 b 186 732 167 725 160 712 b 144 681 133 645 122 612 b 109 575 96 537 86 499 b 65 424 49 346 50 268 b 51 194 88 126 166 113 z"},"D":{"x_min":0,"x_max":1715,"ha":1715,"o":"m 1530 1162 b 1316 1358 979 1372 708 1329 b 556 1305 407 1258 272 1183 b 206 1145 143 1101 86 1050 b 35 1003 -12 946 -23 875 b -27 850 17 858 20 878 b 31 945 76 995 125 1038 b 174 1081 227 1118 283 1150 b 397 1214 522 1257 649 1282 b 907 1333 1220 1326 1431 1149 b 1628 984 1660 703 1581 470 b 1497 221 1298 33 1091 -118 b 941 -228 782 -325 618 -412 b 614 -319 601 -227 592 -135 b 582 -36 573 63 564 162 b 548 359 538 557 533 755 b 530 868 529 981 528 1095 b 528 1128 484 1133 460 1127 b 428 1119 401 1094 400 1060 b 386 662 414 261 470 -133 b 485 -241 500 -352 531 -456 b 445 -499 358 -540 269 -578 b 246 -588 219 -619 232 -647 b 246 -676 285 -668 309 -659 b 595 -548 865 -397 1115 -220 b 1351 -52 1571 155 1673 433 b 1763 678 1729 979 1530 1162 z"},"^":{"x_min":0,"x_max":353,"ha":353,"o":"m 302 590 b 290 656 249 795 158 770 b 112 758 84 714 68 672 b 54 634 42 589 57 549 b 67 523 106 545 116 559 b 133 585 143 614 155 642 b 156 645 157 647 158 650 b 162 643 166 635 169 627 b 180 602 187 576 196 551 b 211 503 311 546 302 590 z"},"0":{"x_min":0,"x_max":576,"ha":576,"o":"m 96 69 b 125 -2 178 -66 262 -65 b 338 -64 407 -3 448 57 b 530 175 543 346 505 482 b 475 591 371 776 232 695 b 188 670 160 625 147 577 b 140 577 135 577 130 577 b 106 572 81 556 74 531 b 53 455 48 371 51 292 b 53 216 68 140 96 69 z m 253 669 b 310 698 371 647 392 597 b 415 543 424 481 428 422 b 435 313 423 193 365 98 b 350 73 312 17 277 28 b 227 44 205 110 191 154 b 166 230 163 306 167 382 b 184 358 208 341 242 336 b 262 334 288 367 260 371 b 193 379 177 461 179 517 b 181 571 201 642 253 669 z"},"F":{"x_min":0,"x_max":1294,"ha":1294,"o":"m 1502 1248 b 1579 1257 1658 1260 1736 1252 b 1789 1247 1870 1243 1892 1184 b 1906 1150 1976 1183 1962 1218 b 1943 1268 1891 1290 1842 1301 b 1774 1315 1702 1317 1632 1315 b 1484 1312 1338 1282 1195 1245 b 1102 1222 1011 1195 921 1165 b 920 1184 919 1203 917 1222 b 913 1289 792 1247 793 1189 b 793 1166 793 1143 794 1121 b 659 1072 527 1015 398 952 b 256 882 119 803 -12 714 b -35 698 -13 672 9 686 b 236 821 473 942 720 1038 b 745 1047 770 1057 795 1066 b 799 879 809 693 818 506 b 821 461 823 416 826 371 b 780 355 734 337 688 319 b 626 334 560 330 497 319 b 420 307 345 282 276 246 b 243 229 212 210 182 189 b 162 174 125 148 133 119 b 141 91 180 100 200 104 b 244 111 286 124 327 139 b 445 181 561 231 677 278 b 758 251 815 186 842 108 b 849 14 856 -79 864 -172 b 869 -232 876 -292 885 -352 b 895 -415 911 -473 934 -532 b 946 -561 999 -534 998 -508 b 983 -286 978 -63 967 159 b 964 233 960 307 957 381 b 997 393 1037 405 1078 415 b 1125 427 1173 437 1221 445 b 1269 452 1318 455 1363 436 b 1383 428 1419 461 1394 471 b 1329 497 1261 488 1195 476 b 1121 463 1048 444 976 422 b 969 420 962 418 955 416 b 949 555 943 695 937 835 b 933 927 929 1019 924 1111 b 983 1130 1042 1148 1102 1165 b 1233 1201 1366 1234 1502 1248 z m 343 181 b 311 169 279 158 247 150 b 237 147 191 131 183 137 b 173 145 209 166 215 170 b 328 248 478 302 617 290 b 597 282 577 274 557 265 b 486 237 415 207 343 181 z m 835 225 b 809 257 776 283 737 302 b 758 310 779 318 801 326 b 810 330 819 333 828 336 b 830 299 832 262 835 225 z"},"`":{"x_min":0,"x_max":241,"ha":241,"o":"m 188 617 b 166 670 140 744 88 775 b 76 782 52 771 50 757 b 48 726 59 698 69 669 b 79 638 91 606 102 575 b 117 533 206 574 188 617 z"},"k":{"x_min":0,"x_max":471,"ha":471,"o":"m 457 91 b 413 110 373 138 335 165 b 305 185 277 212 247 233 b 249 234 251 234 252 235 b 262 240 273 245 283 250 b 298 258 313 266 328 276 b 355 293 381 317 395 346 b 406 372 404 402 374 413 b 345 424 311 410 287 394 b 224 351 185 280 157 211 b 150 193 144 176 139 158 b 138 169 138 180 138 190 b 135 276 135 362 135 448 b 135 622 143 797 138 971 b 137 1002 97 1007 74 1001 b 44 993 21 970 18 939 b 4 757 4 574 9 392 b 11 304 15 216 25 128 b 30 86 37 44 50 4 b 60 -30 74 -67 115 -65 b 127 -64 144 -55 146 -42 b 146 -39 146 -36 147 -33 b 149 -30 151 -27 151 -23 b 155 42 165 110 186 175 b 193 166 200 158 206 150 b 222 130 240 112 258 95 b 297 61 341 37 385 10 b 431 -19 515 67 457 91 z m 230 269 b 229 268 227 267 226 267 b 236 284 246 301 258 317 b 275 338 295 360 319 373 b 332 380 358 386 354 360 b 353 348 342 336 334 328 b 315 309 290 297 266 286 b 254 280 242 275 230 269 z"},"u":{"x_min":0,"x_max":416,"ha":416,"o":"m 400 58 b 398 92 397 126 397 159 b 397 226 401 293 401 360 b 401 391 360 395 338 390 b 310 382 288 361 284 332 b 269 279 259 225 245 172 b 238 144 230 116 220 89 b 214 73 193 15 172 21 b 153 27 143 67 140 82 b 134 110 132 138 131 167 b 127 230 135 293 136 356 b 136 383 101 390 81 387 b 56 383 25 365 20 337 b 0 234 -13 -56 163 -21 b 231 -7 256 61 275 121 b 276 126 278 132 279 137 b 280 132 280 127 280 123 b 282 90 285 57 292 24 b 299 -8 307 -42 339 -57 b 356 -66 378 -53 388 -39 b 406 -9 402 25 400 58 z"},"]":{"x_min":0,"x_max":350,"ha":350,"o":"m 290 201 b 286 314 282 428 276 542 b 271 648 267 757 241 861 b 229 909 216 975 172 1005 b 139 1028 91 1037 58 1008 b 37 990 62 974 81 987 b 123 1017 131 881 132 864 b 138 807 140 750 142 693 b 146 580 147 466 149 353 b 151 238 153 123 156 8 b 157 -48 161 -105 161 -162 b 160 -175 162 -196 154 -206 b 150 -212 129 -217 117 -222 b 98 -228 80 -239 72 -258 b 67 -272 70 -292 87 -298 b 138 -315 197 -301 238 -266 b 280 -231 297 -183 299 -129 b 304 -20 294 91 290 201 z"},"U":{"x_min":0,"x_max":1364,"ha":1364,"o":"m 1293 -121 b 1271 86 1257 294 1240 502 b 1230 619 1223 737 1200 852 b 1192 893 1131 864 1128 833 b 1127 821 1127 810 1126 799 b 995 455 892 94 701 -223 b 657 -297 608 -387 531 -431 b 452 -477 378 -443 324 -378 b 268 -310 233 -220 208 -136 b 179 -39 162 62 151 161 b 125 391 137 621 144 851 b 145 883 100 888 78 882 b 47 874 22 850 20 818 b 7 598 3 375 31 157 b 44 50 65 -55 97 -157 b 126 -251 166 -346 232 -421 b 290 -488 372 -531 462 -518 b 563 -504 639 -432 696 -352 b 810 -190 889 -4 958 180 b 1019 341 1068 505 1124 668 b 1124 616 1126 564 1128 512 b 1131 405 1135 299 1140 192 b 1150 -15 1160 -223 1194 -427 b 1212 -542 1242 -655 1284 -762 b 1297 -794 1345 -788 1369 -776 b 1397 -763 1421 -734 1410 -701 b 1345 -514 1314 -318 1293 -121 z"},"o":{"x_min":0,"x_max":352,"ha":352,"o":"m 192 407 b 108 413 4 349 13 255 b 13 253 14 251 14 250 b 14 249 14 249 13 248 b -7 148 15 -35 155 -21 b 265 -10 334 93 346 197 b 358 297 300 399 192 407 z m 213 33 b 141 -10 126 92 127 174 b 185 173 241 194 287 228 b 312 248 282 269 261 253 b 223 224 176 207 128 211 b 129 230 131 246 132 255 b 140 300 96 307 60 294 b 61 300 64 307 67 313 b 86 351 128 372 169 371 b 220 371 262 341 284 297 b 325 217 295 80 213 33 z"},"N":{"x_min":0,"x_max":1468,"ha":1468,"o":"m 1120 -798 b 1259 -764 1306 -578 1331 -459 b 1398 -137 1397 199 1398 526 b 1398 715 1394 905 1389 1094 b 1383 1282 1380 1472 1365 1660 b 1360 1726 1244 1684 1244 1628 b 1245 1467 1256 1305 1263 1144 b 1269 985 1275 826 1279 667 b 1289 351 1299 30 1270 -286 b 1263 -359 1255 -432 1240 -504 b 1226 -570 1209 -646 1167 -700 b 1154 -717 1136 -736 1114 -740 b 1081 -746 1051 -718 1029 -698 b 978 -650 939 -590 903 -530 b 748 -268 640 21 528 302 b 464 463 403 626 343 788 b 283 951 236 1121 159 1276 b 157 1279 155 1281 152 1282 b 154 1314 108 1318 87 1313 b 56 1305 33 1282 30 1250 b 10 995 7 739 19 483 b 31 230 57 -24 104 -272 b 117 -341 133 -409 153 -476 b 172 -543 192 -613 232 -669 b 249 -692 298 -675 294 -646 b 287 -585 267 -526 253 -467 b 239 -407 228 -346 217 -285 b 196 -162 182 -37 170 88 b 144 341 133 596 135 850 b 136 965 140 1080 147 1195 b 201 1066 239 928 283 795 b 333 640 386 486 443 333 b 499 181 558 30 620 -120 b 680 -265 745 -409 823 -545 b 859 -608 898 -671 948 -724 b 994 -773 1050 -814 1120 -798 z"},"+":{"x_min":0,"x_max":384,"ha":384,"o":"m 322 345 b 295 347 268 347 241 346 b 243 387 244 428 244 469 b 243 530 128 497 123 449 b 119 411 117 373 116 335 b 101 333 85 330 70 327 b 44 322 42 286 73 292 b 87 295 101 297 116 299 b 116 284 116 269 116 253 b 118 201 113 122 153 82 b 174 61 215 84 222 108 b 238 164 235 228 238 286 b 238 294 239 302 239 310 b 260 310 281 310 302 308 b 313 308 327 312 332 323 b 337 332 334 345 322 345 z"},"G":{"x_min":0,"x_max":1581,"ha":1581,"o":"m 1060 -100 b 998 -193 945 -299 950 -413 b 955 -518 1019 -614 1131 -617 b 1252 -620 1347 -527 1400 -428 b 1457 -324 1491 -210 1502 -93 b 1511 6 1507 109 1481 206 b 1501 213 1523 217 1545 217 b 1570 217 1586 255 1554 255 b 1526 255 1498 250 1470 241 b 1468 246 1467 251 1465 256 b 1434 341 1371 460 1269 468 b 1167 476 1090 367 1035 296 b 970 211 913 119 858 27 b 804 -66 751 -159 691 -248 b 632 -335 562 -428 475 -489 b 436 -517 386 -541 338 -533 b 293 -526 256 -494 230 -459 b 166 -371 141 -264 130 -158 b 108 60 148 291 230 494 b 311 691 434 886 600 1022 b 687 1093 787 1149 901 1157 b 955 1161 1011 1163 1061 1140 b 1112 1118 1145 1076 1159 1023 b 1171 974 1172 923 1172 873 b 1172 851 1212 864 1213 883 b 1215 976 1213 1084 1146 1156 b 1074 1233 951 1247 852 1232 b 618 1195 433 1027 295 843 b 163 665 68 459 20 243 b -27 27 -42 -226 53 -431 b 94 -521 171 -603 274 -616 b 389 -631 489 -563 565 -484 b 712 -335 810 -145 915 34 b 968 126 1023 217 1090 300 b 1122 340 1156 386 1200 413 b 1252 445 1304 417 1335 370 b 1365 322 1382 266 1392 207 b 1347 183 1305 153 1269 125 b 1187 62 1118 -15 1060 -100 z m 1403 39 b 1402 -77 1382 -193 1343 -301 b 1324 -351 1300 -400 1271 -444 b 1248 -481 1217 -519 1173 -530 b 1059 -556 1023 -416 1035 -331 b 1050 -228 1101 -123 1164 -40 b 1226 42 1304 112 1393 163 b 1394 164 1396 165 1398 166 b 1402 123 1403 80 1403 39 z"},"q":{"x_min":0,"x_max":352,"ha":352,"o":"m 192 407 b 108 413 4 349 13 255 b 13 253 14 251 14 250 b 14 249 14 249 13 248 b -7 148 15 -35 155 -21 b 162 -20 169 -19 175 -18 b 183 -60 190 -103 198 -146 b 202 -171 248 -155 244 -133 b 238 -89 229 -45 220 -2 b 292 34 337 115 346 197 b 358 297 300 399 192 407 z m 213 33 b 213 33 213 33 213 32 b 209 51 204 70 200 89 b 195 111 153 97 157 77 b 161 60 164 43 167 26 b 134 43 127 114 127 174 b 185 173 241 194 287 228 b 312 248 282 269 261 253 b 223 224 176 207 128 211 b 129 230 131 246 132 255 b 140 300 96 307 60 294 b 61 300 64 307 67 313 b 86 351 128 372 169 371 b 220 371 262 341 284 297 b 325 217 295 80 213 33 z"},"d":{"x_min":0,"x_max":423,"ha":423,"o":"m 409 62 b 405 104 403 147 402 190 b 399 276 399 362 399 448 b 399 622 407 797 402 971 b 401 1002 361 1007 338 1001 b 308 993 284 970 282 939 b 268 757 268 574 273 392 b 273 389 273 386 273 382 b 235 398 191 392 154 375 b 77 339 29 258 12 178 b -4 109 -5 13 63 -30 b 91 -47 128 -46 158 -30 b 190 -13 205 22 218 54 b 243 113 260 175 279 236 b 282 200 285 164 289 128 b 294 86 301 44 314 4 b 324 -30 338 -67 379 -65 b 391 -64 408 -55 410 -42 b 415 -8 412 27 409 62 z m 215 164 b 206 136 196 108 186 81 b 177 61 163 10 138 1 b 113 23 110 59 110 92 b 110 133 117 176 132 215 b 144 245 164 290 192 309 b 214 324 239 310 258 293 b 242 251 229 207 215 164 z"},"1":{"x_min":0,"x_max":478,"ha":478,"o":"m 88 542 b 105 566 224 734 251 661 b 264 627 253 582 251 546 b 248 505 244 463 239 422 b 217 257 187 91 191 -76 b 191 -80 192 -84 193 -88 b 173 -92 153 -96 133 -101 b 107 -107 105 -144 136 -137 b 224 -115 312 -101 402 -96 b 426 -94 443 -56 411 -58 b 379 -60 347 -63 316 -67 b 321 -59 323 -50 323 -40 b 314 158 362 356 341 555 b 335 614 307 736 222 714 b 145 694 93 609 53 548 b 39 526 78 527 88 542 z"},"5":{"x_min":0,"x_max":632,"ha":632,"o":"m 55 380 b 48 361 47 337 61 320 b 84 293 124 299 153 311 b 192 328 224 345 267 338 b 451 310 491 44 335 -49 b 292 -76 237 -88 197 -50 b 155 -11 153 47 154 101 b 154 135 95 114 90 91 b 74 11 100 -87 184 -118 b 264 -148 353 -102 414 -52 b 544 56 561 278 416 382 b 377 410 331 428 282 431 b 255 433 229 431 202 426 b 198 425 195 424 191 423 b 194 432 197 441 201 450 b 210 478 220 506 229 534 b 242 575 258 618 267 662 b 271 663 276 664 280 664 b 326 673 372 684 419 690 b 458 695 513 704 541 669 b 555 652 594 677 579 697 b 532 757 422 727 360 715 b 330 710 301 703 272 697 b 273 712 252 718 241 718 b 223 717 209 706 199 692 b 197 690 196 687 194 684 b 157 680 119 681 92 711 b 79 726 42 702 57 685 b 86 652 128 644 172 647 b 153 612 138 574 122 539 b 98 488 72 434 55 380 z"}}}
